<svg width="436" height="35" viewBox="0 0 436 35" fill="none" xmlns="http://www.w3.org/2000/svg">
<path d="M0 34.37H2.9V16.997H14.972V14.231H2.9V3.16602H18.352V0.400024H0V34.37Z" fill="white"/>
<path d="M45.6388 14.813C46.483 14.0349 47.1556 13.0893 47.6137 12.0365C48.0717 10.9838 48.305 9.84703 48.2988 8.69897C48.3049 7.55093 48.0715 6.41424 47.6135 5.3615C47.1555 4.30876 46.4829 3.36312 45.6388 2.58497C43.821 1.02306 41.4621 0.238303 39.0708 0.399969H27.5278V34.37H30.4278V16.997H36.1278L49.1638 34.37H52.6408L39.5988 16.997C41.8169 17.0651 43.9773 16.2839 45.6388 14.813V14.813ZM30.4258 14.231V3.16597H38.9258C41.3408 3.16597 42.6448 3.69997 43.6108 4.62197C44.1742 5.14107 44.6239 5.77133 44.9315 6.47296C45.2391 7.1746 45.3979 7.93237 45.3979 8.69847C45.3979 9.46456 45.2391 10.2223 44.9315 10.924C44.6239 11.6256 44.1742 12.2559 43.6108 12.775C42.6448 13.697 41.3408 14.231 38.9258 14.231H30.4258Z" fill="white"/>
<path d="M73.022 0.400024L58.438 34.37H61.338L65.781 24.13H82.202L86.638 34.37H89.538L74.954 0.400024H73.022ZM66.938 21.365L73.989 4.96502L80.989 21.365H66.938Z" fill="white"/>
<path d="M122.62 28.693L99.9222 0.400024H97.9902V34.37H100.89V6.07802L123.59 34.37H125.522V0.400024H122.622L122.62 28.693Z" fill="white"/>
<path d="M161.739 0.400024H157.875L141.938 15.638V0.400024H139.038V34.37H141.938V17.191L159.324 34.37H163.184L145.029 16.463L161.739 0.400024Z" fill="white"/>
<path d="M266.833 2.52301C264.941 1.05393 262.576 0.328921 260.185 0.485007H247.616V34.456H250.527V18.056H260.184C262.575 18.2127 264.94 17.4877 266.832 16.018C267.806 15.1845 268.588 14.15 269.124 12.9856C269.66 11.8212 269.938 10.5544 269.938 9.27251C269.938 7.99057 269.66 6.72384 269.124 5.55941C268.588 4.39498 267.806 3.36047 266.832 2.52701L266.833 2.52301ZM265.28 13.491C264.164 14.606 262.659 15.291 260.039 15.291H250.527V3.25101H260.039C262.66 3.25101 264.164 3.93101 265.28 5.05101C266.399 6.17129 267.027 7.68979 267.027 9.27301C267.027 10.8562 266.399 12.3747 265.28 13.495V13.491Z" fill="white"/>
<path d="M294.592 0C284.984 0 277.704 7.571 277.704 17.471C277.704 27.371 284.983 34.941 294.592 34.941C304.201 34.941 311.48 27.37 311.48 17.471C311.48 7.572 304.2 0 294.592 0ZM294.592 32.175C286.392 32.175 280.616 25.526 280.616 17.475C280.616 9.424 286.391 2.775 294.592 2.775C302.793 2.775 308.568 9.424 308.568 17.475C308.568 25.526 302.793 32.175 294.592 32.175Z" fill="white"/>
<path d="M339.628 14.898C340.47 14.1174 341.141 13.1714 341.6 12.1193C342.059 11.0671 342.296 9.9315 342.296 8.78351C342.296 7.63552 342.059 6.49989 341.6 5.44774C341.141 4.3956 340.47 3.44961 339.628 2.66901C337.798 1.10582 335.429 0.321785 333.028 0.485009H321.428V34.456H324.34V17.082H330.067L343.167 34.456H346.662L333.562 17.082C335.788 17.1503 337.956 16.3695 339.628 14.898V14.898ZM324.342 14.316V3.25101H332.883C335.31 3.25101 336.62 3.78501 337.59 4.70701C338.156 5.22458 338.608 5.85433 338.917 6.55617C339.226 7.25802 339.386 8.01656 339.386 8.78351C339.386 9.55046 339.226 10.309 338.917 11.0108C338.608 11.7127 338.156 12.3424 337.59 12.86C336.62 13.782 335.309 14.316 332.883 14.316H324.342Z" fill="white"/>
<path d="M349.82 3.25211H359.526V34.4521H362.437V3.25211H372.146V0.485107H349.82V3.25211Z" fill="white"/>
<path d="M384.278 17.0821H396.41V14.3161H384.278V3.25211H399.807V0.485107H381.365V34.4551H400.291V31.6891H384.278V17.0821Z" fill="white"/>
<path d="M422.612 17.082C424.838 17.1502 427.007 16.3694 428.678 14.898C429.52 14.1174 430.192 13.1714 430.651 12.1193C431.11 11.0671 431.347 9.9315 431.347 8.78351C431.347 7.63552 431.11 6.49989 430.651 5.44774C430.192 4.3956 429.52 3.44961 428.678 2.66901C426.849 1.10582 424.479 0.321785 422.078 0.485009H410.479V34.456H413.391V17.082H419.117L432.216 34.456H435.711L422.612 17.082ZM413.393 14.316V3.25101H421.933C424.359 3.25101 425.671 3.78501 426.641 4.70701C427.206 5.22466 427.658 5.85444 427.967 6.55627C428.277 7.2581 428.436 8.01661 428.436 8.78351C428.436 9.55041 428.277 10.3089 427.967 11.0107C427.658 11.7126 427.206 12.3424 426.641 12.86C425.671 13.782 424.359 14.316 421.933 14.316H413.393Z" fill="white"/>
<path d="M199.766 0.514893V11.5869L209.392 6.05089L199.766 0.514893Z" fill="white"/>
<path d="M219.019 0.514893L209.393 6.05089L219.019 11.5869V0.514893Z" fill="white"/>
<path d="M190.496 0.537964L185.034 3.68196V34.506H209.368L209.358 34.488H219.024V17.054L209.347 34.47L190.496 0.537964Z" fill="white"/>
</svg>
